<svg width="56" height="56" viewBox="0 0 56 56" fill="none" xmlns="http://www.w3.org/2000/svg">
<rect width="56" height="56" rx="16" fill="#51A2FF" fill-opacity="0.1"/>
<path d="M25.6666 28H30.3333" stroke="#51A2FF" stroke-width="2.33333" stroke-linecap="round" stroke-linejoin="round"/>
<path d="M25.6666 23.3335H30.3333" stroke="#51A2FF" stroke-width="2.33333" stroke-linecap="round" stroke-linejoin="round"/>
<path d="M30.3333 38.4998V34.9998C30.3333 34.381 30.0875 33.7875 29.6499 33.3499C29.2123 32.9123 28.6188 32.6665 28 32.6665C27.3811 32.6665 26.7876 32.9123 26.35 33.3499C25.9125 33.7875 25.6666 34.381 25.6666 34.9998V38.4998" stroke="#51A2FF" stroke-width="2.33333" stroke-linecap="round" stroke-linejoin="round"/>
<path d="M21 25.6665H18.6667C18.0479 25.6665 17.4544 25.9123 17.0168 26.3499C16.5792 26.7875 16.3334 27.381 16.3334 27.9998V36.1665C16.3334 36.7853 16.5792 37.3788 17.0168 37.8164C17.4544 38.254 18.0479 38.4998 18.6667 38.4998H37.3334C37.9522 38.4998 38.5457 38.254 38.9833 37.8164C39.4209 37.3788 39.6667 36.7853 39.6667 36.1665V24.4998C39.6667 23.881 39.4209 23.2875 38.9833 22.8499C38.5457 22.4123 37.9522 22.1665 37.3334 22.1665H35" stroke="#51A2FF" stroke-width="2.33333" stroke-linecap="round" stroke-linejoin="round"/>
<path d="M21 38.5V19.8333C21 19.2145 21.2458 18.621 21.6834 18.1834C22.121 17.7458 22.7145 17.5 23.3333 17.5H32.6667C33.2855 17.5 33.879 17.7458 34.3166 18.1834C34.7542 18.621 35 19.2145 35 19.8333V38.5" stroke="#51A2FF" stroke-width="2.33333" stroke-linecap="round" stroke-linejoin="round"/>
</svg>
