<svg width="56" height="56" viewBox="0 0 56 56" fill="none" xmlns="http://www.w3.org/2000/svg">
<rect width="56" height="56" rx="16" fill="#EF3E34" fill-opacity="0.1"/>
<path d="M39.3516 35.0001L30.0183 18.6668C29.8148 18.3077 29.5197 18.009 29.1631 17.8012C28.8064 17.5934 28.4011 17.4839 27.9883 17.4839C27.5756 17.4839 27.1702 17.5934 26.8136 17.8012C26.4569 18.009 26.1618 18.3077 25.9583 18.6668L16.625 35.0001C16.4193 35.3564 16.3114 35.7607 16.3123 36.172C16.3132 36.5834 16.4229 36.9872 16.6302 37.3426C16.8374 37.6979 17.135 37.9921 17.4926 38.1954C17.8503 38.3987 18.2553 38.5038 18.6666 38.5001H37.3333C37.7427 38.4997 38.1448 38.3916 38.4991 38.1866C38.8535 37.9816 39.1477 37.687 39.3522 37.3324C39.5568 36.9778 39.6644 36.5756 39.6643 36.1662C39.6641 35.7568 39.5563 35.3546 39.3516 35.0001Z" stroke="#EF3E34" stroke-width="2.33333" stroke-linecap="round" stroke-linejoin="round"/>
<path d="M28 24.5V29.1667" stroke="#EF3E34" stroke-width="2.33333" stroke-linecap="round" stroke-linejoin="round"/>
<path d="M28 33.8335H28.0117" stroke="#EF3E34" stroke-width="2.33333" stroke-linecap="round" stroke-linejoin="round"/>
</svg>
