<svg width="56" height="56" viewBox="0 0 56 56" fill="none" xmlns="http://www.w3.org/2000/svg">
<rect width="56" height="56" rx="16" fill="#00D492" fill-opacity="0.1"/>
<path d="M28 39.6668C34.4433 39.6668 39.6666 34.4435 39.6666 28.0002C39.6666 21.5568 34.4433 16.3335 28 16.3335C21.5567 16.3335 16.3333 21.5568 16.3333 28.0002C16.3333 34.4435 21.5567 39.6668 28 39.6668Z" stroke="#00D492" stroke-width="2.33333" stroke-linecap="round" stroke-linejoin="round"/>
<path d="M28 35C31.866 35 35 31.866 35 28C35 24.134 31.866 21 28 21C24.134 21 21 24.134 21 28C21 31.866 24.134 35 28 35Z" stroke="#00D492" stroke-width="2.33333" stroke-linecap="round" stroke-linejoin="round"/>
<path d="M28 30.3332C29.2887 30.3332 30.3334 29.2885 30.3334 27.9998C30.3334 26.7112 29.2887 25.6665 28 25.6665C26.7114 25.6665 25.6667 26.7112 25.6667 27.9998C25.6667 29.2885 26.7114 30.3332 28 30.3332Z" stroke="#00D492" stroke-width="2.33333" stroke-linecap="round" stroke-linejoin="round"/>
</svg>
