<svg width="56" height="56" viewBox="0 0 56 56" fill="none" xmlns="http://www.w3.org/2000/svg">
<rect width="56" height="56" rx="16" fill="#C27AFF" fill-opacity="0.1"/>
<path d="M30.9587 39.3005C31.003 39.4109 31.0801 39.5052 31.1795 39.5706C31.279 39.636 31.3961 39.6694 31.515 39.6664C31.634 39.6633 31.7492 39.624 31.8452 39.5536C31.9412 39.4831 32.0133 39.3851 32.0519 39.2725L39.6352 17.1058C39.6726 17.0024 39.6797 16.8906 39.6558 16.7833C39.6318 16.676 39.5779 16.5778 39.5001 16.5001C39.4224 16.4223 39.3242 16.3684 39.2169 16.3444C39.1096 16.3205 38.9978 16.3276 38.8944 16.365L16.7277 23.9483C16.6151 23.9869 16.5171 24.0591 16.4466 24.155C16.3762 24.251 16.3369 24.3662 16.3338 24.4852C16.3308 24.6042 16.3642 24.7212 16.4296 24.8207C16.495 24.9201 16.5893 24.9972 16.6997 25.0415L25.9514 28.7515C26.2439 28.8686 26.5096 29.0437 26.7326 29.2662C26.9555 29.4888 27.1311 29.7542 27.2487 30.0465L30.9587 39.3005Z" stroke="#C27AFF" stroke-width="2.33333" stroke-linecap="round" stroke-linejoin="round"/>
<path d="M39.4964 16.5049L26.733 29.267" stroke="#C27AFF" stroke-width="2.33333" stroke-linecap="round" stroke-linejoin="round"/>
</svg>
