<svg width="20" height="20" viewBox="0 0 20 20" fill="none" xmlns="http://www.w3.org/2000/svg">
<path d="M8.33337 10H11.6667" stroke="#A6A6A6" stroke-width="1.66667" stroke-linecap="round" stroke-linejoin="round"/>
<path d="M8.33337 6.6665H11.6667" stroke="#A6A6A6" stroke-width="1.66667" stroke-linecap="round" stroke-linejoin="round"/>
<path d="M11.6667 17.5002V15.0002C11.6667 14.5581 11.4911 14.1342 11.1786 13.8217C10.866 13.5091 10.4421 13.3335 10 13.3335C9.55801 13.3335 9.13409 13.5091 8.82153 13.8217C8.50897 14.1342 8.33337 14.5581 8.33337 15.0002V17.5002" stroke="#A6A6A6" stroke-width="1.66667" stroke-linecap="round" stroke-linejoin="round"/>
<path d="M4.99996 8.3335H3.33329C2.89127 8.3335 2.46734 8.50909 2.15478 8.82165C1.84222 9.13421 1.66663 9.55814 1.66663 10.0002V15.8335C1.66663 16.2755 1.84222 16.6994 2.15478 17.012C2.46734 17.3246 2.89127 17.5002 3.33329 17.5002H16.6666C17.1087 17.5002 17.5326 17.3246 17.8451 17.012C18.1577 16.6994 18.3333 16.2755 18.3333 15.8335V7.50016C18.3333 7.05814 18.1577 6.63421 17.8451 6.32165C17.5326 6.00909 17.1087 5.8335 16.6666 5.8335H15" stroke="#A6A6A6" stroke-width="1.66667" stroke-linecap="round" stroke-linejoin="round"/>
<path d="M5 17.5V4.16667C5 3.72464 5.17559 3.30072 5.48816 2.98816C5.80072 2.67559 6.22464 2.5 6.66667 2.5H13.3333C13.7754 2.5 14.1993 2.67559 14.5118 2.98816C14.8244 3.30072 15 3.72464 15 4.16667V17.5" stroke="#A6A6A6" stroke-width="1.66667" stroke-linecap="round" stroke-linejoin="round"/>
</svg>
