<svg width="20" height="20" viewBox="0 0 20 20" fill="none" xmlns="http://www.w3.org/2000/svg">
<g clip-path="url(#clip0_3_171)">
<path d="M18.3333 9.99984H16.2666C15.9024 9.99906 15.548 10.1176 15.2576 10.3373C14.9671 10.557 14.7566 10.8658 14.6583 11.2165L12.7 18.1832C12.6873 18.2264 12.661 18.2645 12.625 18.2915C12.5889 18.3186 12.545 18.3332 12.5 18.3332C12.4549 18.3332 12.411 18.3186 12.375 18.2915C12.3389 18.2645 12.3126 18.2264 12.3 18.1832L7.69996 1.8165C7.68734 1.77323 7.66102 1.73522 7.62496 1.70817C7.5889 1.68112 7.54504 1.6665 7.49996 1.6665C7.45488 1.6665 7.41102 1.68112 7.37496 1.70817C7.3389 1.73522 7.31258 1.77323 7.29996 1.8165L5.34163 8.78317C5.24368 9.13247 5.03444 9.44027 4.74568 9.65985C4.45691 9.87943 4.10439 9.9988 3.74163 9.99984H1.66663" stroke="#FFBA00" stroke-width="1.66667" stroke-linecap="round" stroke-linejoin="round"/>
</g>
<defs>
<clipPath id="clip0_3_171">
<rect width="20" height="20" fill="white"/>
</clipPath>
</defs>
</svg>
