<svg width="20" height="20" viewBox="0 0 20 20" fill="none" xmlns="http://www.w3.org/2000/svg">
<g clip-path="url(#clip0_10_3020)">
<path d="M9.99996 18.3332C14.6023 18.3332 18.3333 14.6022 18.3333 9.99984C18.3333 5.39746 14.6023 1.6665 9.99996 1.6665C5.39759 1.6665 1.66663 5.39746 1.66663 9.99984C1.66663 14.6022 5.39759 18.3332 9.99996 18.3332Z" stroke="#A6A6A6" stroke-width="1.66667" stroke-linecap="round" stroke-linejoin="round"/>
<path d="M10 15C12.7614 15 15 12.7614 15 10C15 7.23858 12.7614 5 10 5C7.23858 5 5 7.23858 5 10C5 12.7614 7.23858 15 10 15Z" stroke="#A6A6A6" stroke-width="1.66667" stroke-linecap="round" stroke-linejoin="round"/>
<path d="M10 11.6668C10.9205 11.6668 11.6667 10.9206 11.6667 10.0002C11.6667 9.07969 10.9205 8.3335 10 8.3335C9.07957 8.3335 8.33337 9.07969 8.33337 10.0002C8.33337 10.9206 9.07957 11.6668 10 11.6668Z" stroke="#A6A6A6" stroke-width="1.66667" stroke-linecap="round" stroke-linejoin="round"/>
</g>
<defs>
<clipPath id="clip0_10_3020">
<rect width="20" height="20" fill="white"/>
</clipPath>
</defs>
</svg>
